HIERARCHY
ROOT Hips
{
	OFFSET 0.000000 0.000000 0.000000
	CHANNELS 6 Xposition Yposition Zposition Xrotation Yrotation Zrotation
	JOINT LeftUpLeg_virtual
	{
		OFFSET 0.000000 0.000000 0.000000
		CHANNELS 3 Xrotation Yrotation Zrotation
		JOINT LeftUpLeg
		{
			OFFSET 13.026900 -6.336304 -1.092800
			CHANNELS 3 Xrotation Yrotation Zrotation
			JOINT LeftLeg
			{
				OFFSET 0.524474 -46.096886 9.782700
				CHANNELS 3 Xrotation Yrotation Zrotation
				JOINT LeftFoot
				{
					OFFSET -0.524474 -53.427422 -12.948200
					CHANNELS 3 Xrotation Yrotation Zrotation
					JOINT LeftToeBase
					{
						OFFSET 0.192200 -14.009700 16.364100
						CHANNELS 3 Xrotation Yrotation Zrotation
						JOINT LeftToe_End
						{
							OFFSET -1.784700 -0.561700 9.474800
							CHANNELS 3 Xrotation Yrotation Zrotation
							End Site
							{
								OFFSET 0 0 0
							}
						}
					}
				}
			}
		}
	}
	JOINT RightUpLeg_virtual
	{
		OFFSET 0.000000 0.000000 0.000000
		CHANNELS 3 Xrotation Yrotation Zrotation
		JOINT RightUpLeg
		{
			OFFSET -12.883000 -6.336304 -1.092800
			CHANNELS 3 Xrotation Yrotation Zrotation
			JOINT RightLeg
			{
				OFFSET -0.524587 -46.096825 9.782800
				CHANNELS 3 Xrotation Yrotation Zrotation
				JOINT RightFoot
				{
					OFFSET 0.524587 -53.427383 -12.948300
					CHANNELS 3 Xrotation Yrotation Zrotation
					JOINT RightToeBase
					{
						OFFSET -0.192200 -14.009700 16.364100
						CHANNELS 3 Xrotation Yrotation Zrotation
						JOINT RightToe_End
						{
							OFFSET 1.784700 -0.561700 9.474800
							CHANNELS 3 Xrotation Yrotation Zrotation
							End Site
							{
								OFFSET 0 0 0
							}
						}
					}
				}
			}
		}
	}
	JOINT Spine_virtual
	{
		OFFSET 0.000000 0.000000 0.000000
		CHANNELS 3 Xrotation Yrotation Zrotation
		JOINT Spine
		{
			OFFSET 0.072000 7.257294 -0.789700
			CHANNELS 3 Xrotation Yrotation Zrotation
			JOINT Spine1
			{
				OFFSET 0.000000 12.508769 -0.658067
				CHANNELS 3 Xrotation Yrotation Zrotation
				JOINT Spine1_split
				{
					OFFSET 0.000000 12.508769 -0.658067
					CHANNELS 3 Xrotation Yrotation Zrotation
					JOINT Spine2
					{
						OFFSET 0.000000 12.508769 -0.658067
						CHANNELS 3 Xrotation Yrotation Zrotation
						JOINT Neck_virtual
						{
							OFFSET 0.000000 0.000000 0.000000
							CHANNELS 3 Xrotation Yrotation Zrotation
							JOINT Neck
							{
								OFFSET 0.000000 14.033295 7.520400
								CHANNELS 3 Xrotation Yrotation Zrotation
								JOINT Head
								{
									OFFSET 0.000000 8.198502 5.703100
									CHANNELS 3 Xrotation Yrotation Zrotation
									JOINT HeadTop_End
									{
										OFFSET 0.000000 17.760803 13.332701
										CHANNELS 3 Xrotation Yrotation Zrotation
										End Site
										{
											OFFSET 0 0 0
										}
									}
								}
							}
						}
						JOINT LeftShoulder_virtual
						{
							OFFSET 0.000000 0.000000 0.000000
							CHANNELS 3 Xrotation Yrotation Zrotation
							JOINT LeftShoulder
							{
								OFFSET 6.292450 5.785301 -0.669000
								CHANNELS 3 Xrotation Yrotation Zrotation
								JOINT LeftShoulder_split
								{
									OFFSET 6.292450 5.785301 -0.669000
									CHANNELS 3 Xrotation Yrotation Zrotation
									JOINT LeftArm
									{
										OFFSET 13.907140 -6.093903 1.965100
										CHANNELS 3 Xrotation Yrotation Zrotation
										JOINT LeftForeArm
										{
											OFFSET 34.140198 0.000000 0.000000
											CHANNELS 3 Xrotation Yrotation Zrotation
											JOINT LeftHand
											{
												OFFSET 40.960209 0.000000 0.000000
												CHANNELS 3 Xrotation Yrotation Zrotation
												End Site
												{
													OFFSET 0 0 0
												}
											}
										}
									}
								}
							}
						}
						JOINT RightShoulder_virtual
						{
							OFFSET 0.000000 0.000000 0.000000
							CHANNELS 3 Xrotation Yrotation Zrotation
							JOINT RightShoulder
							{
								OFFSET -6.292450 5.785301 -0.669000
								CHANNELS 3 Xrotation Yrotation Zrotation
								JOINT RightShoulder_split
								{
									OFFSET -6.292450 5.785301 -0.669000
									CHANNELS 3 Xrotation Yrotation Zrotation
									JOINT RightArm
									{
										OFFSET -13.907140 -6.093903 1.965100
										CHANNELS 3 Xrotation Yrotation Zrotation
										JOINT RightForeArm
										{
											OFFSET -34.140198 0.000000 0.000000
											CHANNELS 3 Xrotation Yrotation Zrotation
											JOINT RightHand
											{
												OFFSET -40.960209 0.000000 0.000000
												CHANNELS 3 Xrotation Yrotation Zrotation
												End Site
												{
													OFFSET 0 0 0
												}
											}
										}
									}
								}
							}
						}
					}
				}
			}
		}
	}
}
MOTION
Frames: 11
Frame Time: 0.03333333
1.060959 88.436440 1.772552 0.000000 0.000000 0.000000 7.267687 -56.132759 8.762638 -67.169071 23.270518 45.706427 51.231804 -18.249874 2.413623 5.725487 1.342743 -11.815274 -0.791038 -4.532983 0.684846 0.000000 0.000000 0.000000 6.279890 -56.558447 9.249621 -29.406577 2.145787 -31.332601 47.082622 9.656881 -5.799613 -20.133630 -5.560661 29.140688 3.895935 2.144434 2.196447 0.000000 0.000000 0.000000 9.847206 -50.424479 10.748119 13.106441 3.542076 -2.850729 3.081172 6.602243 -4.286578 0.235352 -4.384370 1.360290 0.000000 0.000000 0.000000 -3.771143 5.807278 -3.208499 -0.874299 10.767844 0.061645 -2.478152 26.071759 -4.645561 0.000000 0.000000 0.000000 -4.682433 5.509309 -3.408780 -0.710325 -7.759302 -2.683151 -0.112480 -3.370115 3.166910 -10.139429 5.932798 -45.131336 -20.860905 -28.458422 -17.010422 0.000000 0.000000 0.000000 -5.043801 5.491061 -2.804423 -2.258207 21.640814 1.085491 -5.338063 -2.242473 3.065984 3.627472 -29.535879 59.415317 -19.750721 38.774226 19.376335 0.000000 0.000000 0.000000 
0.716904 88.334572 1.536194 0.000000 0.000000 0.000000 7.031114 -56.128169 8.890814 -67.310333 23.451600 45.946604 51.270320 -18.603552 2.422738 6.198353 1.203421 -11.986127 -0.310000 -4.494396 0.519029 0.000000 0.000000 0.000000 6.138653 -56.538534 9.359450 -29.594243 1.851251 -31.565613 46.893125 9.376605 -5.702705 -20.062122 -5.560655 28.807098 3.801054 2.155738 2.189025 0.000000 0.000000 0.000000 9.251885 -50.377870 10.325112 13.260829 3.335269 -3.091415 3.076818 6.579056 -4.297239 -0.183223 -4.013176 1.015665 0.000000 0.000000 0.000000 -3.875586 5.849108 -3.201137 -1.002827 11.083413 -0.100360 -2.351715 26.145189 -4.464487 0.000000 0.000000 0.000000 -4.719728 5.506718 -3.383017 -0.591484 -7.929778 -2.106543 -0.533267 -2.690158 2.301552 -10.812524 5.960249 -45.189911 -21.347087 -29.419742 -17.572050 0.000000 0.000000 0.000000 -4.922805 5.479353 -2.735269 -2.276842 21.273314 1.215755 -6.220842 -1.600523 3.164017 5.501349 -29.742865 60.025198 -19.768255 39.079098 19.443800 0.000000 0.000000 0.000000 
0.319944 88.371582 1.358669 0.000000 0.000000 0.000000 6.620735 -56.171708 8.716845 -67.255220 23.479802 46.289227 50.972336 -18.817298 2.444832 6.504613 1.138507 -12.180187 0.140325 -4.429726 0.169312 0.000000 0.000000 0.000000 5.717011 -56.670001 9.120867 -29.683715 1.453229 -31.504726 46.801843 9.032795 -5.603726 -20.141499 -5.629535 28.179025 3.508290 2.139675 2.129495 0.000000 0.000000 0.000000 8.588954 -50.599332 9.735629 13.411249 3.108434 -3.386603 3.078054 6.636834 -4.269798 -0.422164 -3.616838 0.959040 0.000000 0.000000 0.000000 -3.940576 5.995649 -3.149152 -0.829391 11.463463 -0.340845 -1.925345 25.569814 -4.227543 0.000000 0.000000 0.000000 -4.773775 5.607233 -3.218601 -0.464829 -8.203599 -1.569343 -0.558832 -1.969998 1.189198 -11.253981 6.258272 -44.763274 -22.318374 -31.410322 -18.888813 0.000000 0.000000 0.000000 -4.798942 5.568444 -2.635682 -2.100218 20.752760 1.091665 -6.662584 -0.965432 3.096206 7.902776 -30.555924 61.321158 -20.335336 41.171414 19.927162 0.000000 0.000000 0.000000 
0.069526 88.607330 1.193714 0.000000 0.000000 0.000000 6.162359 -56.514194 8.327743 -66.754492 23.296269 46.487630 50.234170 -18.944508 2.487682 6.662938 1.155307 -12.591635 0.020610 -4.341846 -0.197346 0.000000 0.000000 0.000000 5.216249 -56.917971 8.692606 -29.961086 1.081263 -31.154443 46.756897 8.783808 -5.519194 -20.232803 -5.607538 27.410845 3.223898 2.102965 2.022312 0.000000 0.000000 0.000000 8.076122 -51.213216 9.179368 13.494320 2.884927 -3.616749 3.091591 6.710509 -4.192312 -0.272906 -3.246441 1.160876 0.000000 0.000000 0.000000 -3.937023 6.168247 -3.044298 -0.524884 11.940885 -0.641579 -1.264728 24.558756 -4.068936 0.000000 0.000000 0.000000 -4.821510 5.737490 -2.983012 -0.360402 -8.538082 -1.300549 -0.055693 -1.382278 0.119293 -11.334050 6.666108 -43.955218 -23.559312 -33.907791 -20.669385 0.000000 0.000000 0.000000 -4.720228 5.690029 -2.512164 -1.795372 20.167424 0.813925 -6.899594 -0.892365 2.883188 10.252043 -31.834586 62.658154 -21.457523 44.475740 20.807292 0.000000 0.000000 0.000000 
-0.013272 88.942383 1.154484 0.000000 0.000000 0.000000 5.849789 -57.251995 7.985801 -65.671804 23.023480 46.404421 49.380212 -19.056566 2.677539 6.597240 1.301898 -13.352727 -0.510971 -4.261332 -0.431395 0.000000 0.000000 0.000000 4.916970 -57.324849 8.349274 -30.658281 0.777352 -30.588377 46.957144 8.695186 -5.426812 -20.318121 -5.357332 26.462321 3.364651 2.054699 1.897436 0.000000 0.000000 0.000000 7.987062 -52.174425 8.898429 13.446524 2.710219 -3.694621 3.132265 6.749689 -4.100744 0.061826 -2.898586 1.353636 0.000000 0.000000 0.000000 -3.863963 6.283669 -2.918515 -0.260018 12.565551 -1.078308 -0.481929 23.463969 -4.149099 0.000000 0.000000 0.000000 -4.836903 5.797356 -2.741878 -0.307630 -8.856372 -1.480009 0.553283 -0.860611 -0.608198 -10.993000 7.058788 -42.850947 -24.749020 -36.518624 -22.524784 0.000000 0.000000 0.000000 -4.720561 5.770654 -2.387276 -1.461872 19.644620 0.499860 -6.900276 -1.390381 2.508127 12.030404 -33.081495 63.296524 -23.128610 48.366407 22.085060 0.000000 0.000000 0.000000 
-0.042932 89.256264 1.514866 0.000000 0.000000 0.000000 5.841961 -58.376152 8.009125 -63.914786 22.855114 45.944487 48.586817 -19.115442 3.009718 6.026940 1.686478 -14.429883 -0.938124 -4.205092 -0.499709 0.000000 0.000000 0.000000 4.926121 -58.080937 8.361080 -32.046179 0.590771 -30.021936 47.546545 8.716915 -5.303440 -20.255252 -4.872230 25.342380 3.920791 1.998070 1.788755 0.000000 0.000000 0.000000 8.378273 -53.612347 9.124512 13.266704 2.570180 -3.596539 3.147369 6.727561 -4.048965 0.407702 -2.887619 1.448248 0.000000 0.000000 0.000000 -3.785592 6.291532 -2.814239 -0.240655 13.426817 -1.656293 0.413521 22.607709 -4.597027 0.000000 0.000000 0.000000 -4.854410 5.741850 -2.600085 -0.321953 -9.085712 -2.188107 0.855586 -0.419705 -0.781234 -9.986933 7.332012 -41.662265 -25.635877 -38.958894 -24.103623 0.000000 0.000000 0.000000 -4.851372 5.736002 -2.317690 -1.173209 19.296900 0.171027 -6.588662 -2.067302 2.140483 12.962839 -33.989009 62.770914 -25.187069 52.155106 23.662398 0.000000 0.000000 0.000000 
-0.154210 89.406578 2.121922 0.000000 0.000000 0.000000 6.356143 -59.876717 8.673941 -61.613607 23.091905 45.435170 47.537157 -19.220446 3.352450 4.812665 2.287600 -15.766343 -1.245758 -4.165889 -0.331550 0.000000 0.000000 0.000000 5.271424 -59.390182 8.916038 -34.319645 0.640223 -29.653434 48.358788 8.886643 -5.142366 -19.615006 -4.061694 24.553944 3.933398 1.915936 1.727791 0.000000 0.000000 0.000000 9.139497 -55.353974 9.897084 13.009912 2.480435 -3.352400 3.083543 6.642031 -4.097282 0.563782 -3.053939 1.350761 0.000000 0.000000 0.000000 -3.790403 6.181681 -2.800805 -0.590856 14.553216 -2.431594 1.424501 22.249657 -5.487147 0.000000 0.000000 0.000000 -4.905672 5.593697 -2.608102 -0.384798 -9.144183 -3.202956 0.655285 -0.101097 -0.491140 -8.460309 7.470239 -40.579855 -26.103555 -40.790371 -25.154514 0.000000 0.000000 0.000000 -5.157132 5.574107 -2.350378 -0.975049 19.041012 -0.156338 -5.884920 -2.543833 1.879488 13.168331 -34.169688 61.051052 -27.174208 55.321121 25.159459 0.000000 0.000000 0.000000 
-0.400763 89.502060 2.745399 0.000000 0.000000 0.000000 7.527228 -61.721776 10.141624 -58.882712 23.865907 45.129672 45.925331 -19.365625 3.485298 3.180590 3.067102 -17.300208 -1.763289 -4.096010 0.022911 0.000000 0.000000 0.000000 6.207951 -61.180566 10.211275 -37.212879 0.923081 -29.465450 49.338097 9.243962 -4.994087 -18.152939 -2.818485 24.455788 3.023713 1.798745 1.784760 0.000000 0.000000 0.000000 10.253922 -57.221597 11.206148 12.724708 2.442259 -3.021039 2.883571 6.530231 -4.291086 0.509533 -3.348789 1.221213 0.000000 0.000000 0.000000 -3.945306 6.000893 -2.927347 -1.211539 15.917913 -3.399724 2.589383 22.392314 -6.811325 0.000000 0.000000 0.000000 -5.095194 5.423106 -2.784476 -0.481862 -9.007699 -4.177143 0.090504 0.163089 0.260847 -6.539919 7.516192 -39.773138 -26.169451 -41.782487 -25.617898 0.000000 0.000000 0.000000 -5.643369 5.318822 -2.532356 -0.843549 18.725064 -0.569419 -5.131472 -2.762003 1.708155 12.961558 -33.715347 58.631348 -28.454595 57.527057 26.048540 0.000000 0.000000 0.000000 
-0.681336 89.683151 3.061459 0.000000 0.000000 0.000000 9.456035 -63.800633 12.431302 -56.216446 24.909992 45.428039 43.747778 -19.433230 3.114465 1.921427 3.929934 -18.842511 -2.568334 -3.933748 0.361511 0.000000 0.000000 0.000000 7.791370 -63.203374 12.163723 -40.281218 1.575583 -29.369837 50.238442 9.817139 -4.930253 -16.113316 -1.202305 24.840765 1.737048 1.688729 1.995694 0.000000 0.000000 0.000000 11.659096 -59.158891 12.989857 12.464099 2.396554 -2.686133 2.515130 6.407184 -4.615877 0.394126 -3.708335 1.321183 0.000000 0.000000 0.000000 -4.281140 5.805651 -3.182462 -2.007341 17.488476 -4.372833 3.958544 22.921526 -8.472419 0.000000 0.000000 0.000000 -5.490373 5.294027 -3.115549 -0.567736 -8.715239 -4.597450 -0.597969 0.274531 1.056674 -4.548941 7.676725 -39.229205 -25.890768 -41.602235 -25.488265 0.000000 0.000000 0.000000 -6.296071 5.022387 -2.841624 -0.748276 18.078573 -1.138650 -4.682926 -2.609750 1.564558 12.303160 -33.265036 55.937139 -28.710403 58.783934 26.051861 0.000000 0.000000 0.000000 
-0.955774 90.047356 2.868458 0.000000 0.000000 0.000000 12.057662 -65.809057 15.320777 -54.207346 25.987704 46.653228 41.513671 -19.141691 2.175130 1.519872 4.774386 -19.918691 -3.212001 -3.648876 0.398594 0.000000 0.000000 0.000000 9.875852 -65.085221 14.502923 -43.195902 2.624127 -29.154567 50.702823 10.519956 -4.998182 -14.103215 0.641338 25.233656 0.764308 1.653052 2.344790 0.000000 0.000000 0.000000 13.341327 -60.957505 15.089667 12.217914 2.338233 -2.427106 2.060535 6.280632 -5.010208 0.169802 -3.879282 1.433299 0.000000 0.000000 0.000000 -4.740293 5.612090 -3.523336 -2.807910 19.136004 -5.195949 5.473683 23.760799 -10.329942 0.000000 0.000000 0.000000 -6.070008 5.178633 -3.505060 -0.598894 -8.437459 -4.138500 -1.190541 0.197012 1.610970 -3.033089 7.879340 -38.771118 -25.353725 -40.348379 -24.968793 0.000000 0.000000 0.000000 -7.068921 4.737596 -3.200455 -0.670037 16.952123 -1.942581 -4.185519 -2.286846 1.361146 10.665235 -33.427468 52.925080 -28.399658 59.886976 25.683236 0.000000 0.000000 0.000000 
-1.135911 90.612297 2.331322 0.000000 0.000000 0.000000 15.101164 -67.459436 18.448122 -52.796246 26.870475 48.510469 39.971432 -18.140349 0.770777 1.556152 5.861155 -19.694210 -3.101974 -3.217205 -0.158844 0.000000 0.000000 0.000000 12.327634 -66.583525 16.983598 -45.773783 3.922166 -28.655280 50.861676 11.212627 -5.209050 -12.809763 2.496762 25.060688 1.189499 1.765661 2.700713 0.000000 0.000000 0.000000 15.323637 -62.478595 17.400769 11.960678 2.213049 -2.297052 1.570790 6.042615 -5.362443 -0.115419 -3.976646 1.570336 0.000000 0.000000 0.000000 -5.233796 5.352322 -3.863015 -3.433830 20.785855 -5.691971 6.925913 24.732631 -12.113503 0.000000 0.000000 0.000000 -6.768978 4.983877 -3.850196 -0.553608 -8.289080 -2.678778 -1.433668 0.085182 1.562554 -2.094461 8.003792 -38.141839 -24.586892 -38.360671 -24.261582 0.000000 0.000000 0.000000 -7.864509 4.391417 -3.503708 -0.598961 15.190042 -2.972094 -3.708301 -2.154979 0.973466 7.956315 -34.490471 49.450747 -28.025105 61.424260 25.474456 0.000000 0.000000 0.000000 
